# xmcd CD database file
#
# Track frame offsets:
#	150
#	22422
#	46665
#	62140
#	86447
#	104752
#	124462
#	152842
#	170425
#	182672
#	206022
#	223797
#	243987
#	272185
#	302242
#	321027
#
# Disc length: 4598 seconds
#
# Revision: 2
# Processed by: cddbd v1.4PL0 Copyright (c) Steve Scherf et al.
# Submitted via: CDex 1.40Release
#
DISCID=f011f410
DTITLE=John Walker - 'Cause!
DYEAR=1996
DGENRE=Country
TTITLE0=Get Up
TTITLE1=Could That Be The Hurt
TTITLE2=You Are My Everything
TTITLE3=Before Your Time
TTITLE4=Nothing In Between
TTITLE5=Find A New Dream
TTITLE6=What The World Needs Now
TTITLE7=I Was Warned
TTITLE8=Heaven In Your Hands
TTITLE9=Highway 466
TTITLE10=Be My Valentine
TTITLE11=I'll Play In The Mood... (13 Was My Lucky Number)
TTITLE12=Under The Influence
TTITLE13=You Put The Love Right Back
TTITLE14=Little Miss Beuautiful
TTITLE15=Golden Crown
EXTD=YEAR: 1996 ID3G: 2
EXTT0=
EXTT1=
EXTT2=
EXTT3=
EXTT4=
EXTT5=
EXTT6=
EXTT7=
EXTT8=
EXTT9=
EXTT10=
EXTT11=
EXTT12=
EXTT13=
EXTT14=
EXTT15=
PLAYORDER=
